<?xml version="1.0" encoding="UTF-8"?>
<!DOCTYPE svg PUBLIC "-//W3C//DTD SVG 1.1//EN" "http://www.w3.org/Graphics/SVG/1.1/DTD/svg11.dtd">
<!-- Creator: CorelDRAW X6 -->
<svg xmlns="http://www.w3.org/2000/svg" xml:space="preserve" width="66.1458mm" height="66.1458mm" version="1.1" style="shape-rendering:geometricPrecision; text-rendering:geometricPrecision; image-rendering:optimizeQuality; fill-rule:evenodd; clip-rule:evenodd"
viewBox="0 0 6615 6615"
 xmlns:xlink="http://www.w3.org/1999/xlink">
 <defs>
  <style type="text/css">
   <![CDATA[
    .fil1 {fill:#363435}
    .fil0 {fill:#AEC5E3}
   ]]>
  </style>
 </defs>
 <g id="Layer_x0020_1">
  <metadata id="CorelCorpID_0Corel-Layer"/>
  <g id="_923528288">
   <path class="fil0" d="M4793 4058c34,-43 13,25 82,-96 24,-43 47,-76 72,-114 42,-67 106,-172 163,-211 72,-17 88,174 97,217 19,88 37,169 58,256 14,59 97,211 -20,200 -60,-5 -90,-140 -112,-204 -311,29 -175,-9 -285,168 -32,51 -181,71 -81,-124 29,-56 15,-41 26,-92zm-2040 67c-20,73 -96,262 -181,148 -21,-48 43,-98 59,-220 67,-35 111,-140 175,-240 217,-336 194,-159 276,203 13,56 23,113 45,166 27,64 36,123 -48,128 -79,-40 -69,-138 -110,-203l-216 18zm1359 -172c-54,113 -54,336 -110,364 -93,46 -98,-68 -86,-137 12,-69 37,-139 56,-207 20,-68 29,-138 44,-209 16,-74 35,-152 119,-145 61,36 66,127 80,208 15,84 34,156 54,236 45,-56 112,-373 133,-412 49,-90 121,-32 141,50 35,145 30,242 90,452 17,61 65,172 -25,179 -77,6 -87,-100 -103,-168 -17,-73 -34,-151 -45,-227 -22,24 -32,64 -44,100 -32,93 -72,261 -132,276 -120,30 -118,-230 -174,-361zm-1798 120c44,15 105,64 137,91 46,40 88,86 10,135 -57,6 -126,-69 -172,-101 -44,-31 -128,-77 -191,-90 1,71 30,205 -60,203 -85,-2 -59,-129 -58,-201 1,-87 1,-175 1,-262 0,-71 -19,-207 36,-233 80,-38 312,21 397,128 35,44 75,120 45,196 -22,57 -52,77 -101,102l-44 31zm1512 -249c-11,259 -118,586 -417,491 -208,-66 -172,-359 -170,-525 1,-64 1,-169 75,-158 99,15 30,236 50,398 8,62 29,146 71,166 71,33 146,9 183,-37 147,-183 8,-582 176,-524 54,19 36,127 33,189zm-2503 -197c49,-13 412,6 495,9 39,2 83,-3 106,23 26,30 14,79 -17,93 -47,21 -183,-6 -246,0 -2,110 14,262 20,377 3,61 14,146 -36,167 -107,44 -85,-109 -85,-116 -2,-120 -9,-281 -23,-398 -7,-57 -31,-17 -161,-39 -82,-14 -89,-56 -53,-116zm2827 -788c-67,248 -234,221 -162,58 47,-108 27,-33 41,-129 60,-33 44,-29 93,-109 27,-44 177,-288 215,-303 117,-47 99,319 188,541 26,64 37,124 -48,128 -67,-36 -71,-132 -110,-202l-215 18zm-2741 -509c40,-31 81,0 122,21 39,19 73,30 114,47 503,206 274,807 -211,626 -48,-18 -73,-25 -74,-87 -2,-150 9,-307 6,-483 -2,-105 -1,-91 42,-124zm3339 602c75,-3 146,-17 213,-35 27,-7 68,-24 95,-17 28,7 50,41 40,76 -13,48 -103,61 -164,73 -58,12 -158,27 -218,22 -132,-12 -82,-186 -75,-387 3,-78 4,-158 4,-237 0,-97 33,-135 114,-89 30,103 -4,460 -10,593zm-2039 -367c-2,102 -2,202 0,304 1,42 3,105 -14,141 -17,36 -68,51 -100,21 -30,-28 -10,-222 -9,-281 2,-96 0,-199 -8,-294 -4,-49 -13,-94 18,-121 91,-82 163,109 236,188 59,64 215,280 290,321 3,-98 1,-199 -1,-297 -1,-79 -46,-229 51,-225 108,5 71,400 71,521 -1,285 -106,210 -261,39l-272 -317zm1215 -153c2,95 -140,54 -277,52 -5,127 44,458 10,518 -33,58 -75,33 -112,0 -12,-156 4,-366 -29,-516 -52,0 -118,0 -167,-11 -50,-11 -88,-61 -44,-104 32,-31 105,-10 154,-7 59,4 119,0 178,0 58,0 113,5 169,7 61,2 116,-2 118,61zm-1453 537c13,60 8,91 -56,101 -75,11 -249,12 -320,-10 -134,-43 -91,-281 -84,-391 2,-38 5,-308 5,-308 19,-51 80,-22 123,-29 83,-14 398,-59 376,72 -15,91 -153,26 -248,32 -141,8 -136,3 -126,198 155,-10 354,-67 344,43 -6,66 -98,56 -158,62 -64,6 -129,14 -194,18 -8,48 -21,157 9,189 17,15 6,9 38,11 100,7 229,-26 291,13zm-2482 3677l6635 0 0 -6635 -6635 0 0 6635z"/>
   <path class="fil1" d="M4113 3953c56,131 53,391 174,361 60,-15 100,-183 132,-276 12,-36 22,-76 44,-100 11,76 28,154 45,227 16,68 26,174 103,168 90,-6 42,-118 25,-179 -60,-210 -55,-308 -90,-452 -20,-82 -91,-140 -141,-50 -21,38 -88,355 -133,412 -20,-80 -39,-152 -54,-236 -14,-81 -20,-172 -80,-208 -84,-7 -103,71 -119,145 -16,71 -25,141 -44,209 -20,68 -44,138 -56,207 -12,69 -7,183 86,137 56,-29 56,-251 110,-364z"/>
   <path class="fil1" d="M2981 2880c155,172 260,246 261,-39 1,-121 37,-515 -71,-521 -97,-5 -52,146 -51,225 2,98 5,200 1,297 -75,-41 -231,-257 -290,-321 -73,-80 -145,-270 -236,-188 -31,28 -22,72 -18,121 8,95 10,198 8,294 -1,58 -21,253 9,281 32,30 83,15 100,-21 17,-36 14,-99 14,-141 -1,-102 -2,-202 0,-304l272 317z"/>
   <path class="fil1" d="M2103 3970l-1 -235c97,-9 216,53 238,118 31,94 -145,131 -236,117zm255 71c48,-25 78,-45 101,-102 30,-76 -10,-152 -45,-196 -85,-107 -317,-166 -397,-128 -55,26 -36,162 -36,233 0,87 0,175 -1,262 -1,72 -26,199 58,201 89,2 61,-132 60,-203 64,12 147,59 191,90 46,31 115,107 172,101 77,-50 36,-95 -10,-135 -32,-28 -93,-76 -137,-91l44 -31z"/>
   <path class="fil1" d="M1491 2915l-3 -445c98,25 286,113 312,238 36,177 -148,277 -309,207zm-82 -586c-43,33 -44,19 -42,124 3,176 -7,333 -6,483 1,62 26,69 74,87 484,181 714,-419 211,-626 -42,-17 -75,-27 -114,-47 -42,-21 -82,-51 -122,-21z"/>
   <path class="fil1" d="M2472 2947c-62,-39 -191,-6 -291,-13 -33,-2 -22,3 -38,-11 -30,-32 -18,-141 -9,-189 65,-4 130,-12 194,-18 59,-5 152,4 158,-62 10,-110 -189,-53 -344,-43 -10,-195 -15,-191 126,-198 96,-5 233,59 248,-32 22,-131 -293,-86 -376,-72 -43,7 -104,-22 -123,29 0,0 -3,270 -5,308 -7,110 -50,348 84,391 71,23 246,22 320,10 64,-10 69,-41 56,-101z"/>
   <path class="fil1" d="M3826 3824c3,-63 21,-171 -33,-189 -167,-58 -28,341 -176,524 -36,45 -111,70 -183,37 -42,-20 -63,-104 -71,-166 -20,-161 48,-383 -50,-398 -73,-11 -74,94 -75,158 -2,166 -38,459 170,525 300,95 406,-232 417,-491z"/>
   <path class="fil1" d="M2826 4012c12,-33 26,-50 45,-83 14,-24 28,-55 48,-73l28 147 -121 9zm143 95c41,65 31,163 110,203 84,-4 75,-63 48,-128 -22,-53 -32,-110 -45,-166 -82,-362 -60,-540 -276,-203 -64,99 -107,204 -175,240 -16,122 -80,172 -59,220 85,115 161,-74 181,-148l216 -18z"/>
   <path class="fil1" d="M5074 3856c15,22 16,47 21,74 5,26 9,46 13,73l-123 9 89 -155zm-281 201c-11,50 3,36 -26,92 -100,195 50,175 81,124 109,-177 -26,-138 285,-168 22,64 53,198 112,204 117,11 34,-142 20,-200 -21,-87 -40,-168 -58,-256 -9,-43 -25,-234 -97,-217 -57,40 -121,145 -163,211 -25,39 -47,72 -72,114 -69,121 -48,54 -82,96z"/>
   <path class="fil1" d="M4223 2725c13,-35 67,-132 93,-155l28 146 -121 8zm142 95c39,70 43,166 110,202 85,-4 74,-64 48,-128 -89,-222 -70,-587 -188,-541 -38,15 -188,259 -215,303 -49,80 -33,76 -93,109 -14,97 6,22 -41,129 -71,163 96,191 162,-58l215 -18z"/>
   <path class="fil1" d="M3516 2464c33,150 17,361 29,516 37,33 79,58 112,0 34,-60 -15,-391 -10,-518 137,2 279,43 277,-52 -1,-64 -57,-59 -118,-61 -57,-2 -112,-8 -169,-7 -59,0 -119,4 -178,0 -48,-3 -122,-24 -154,7 -44,43 -6,93 44,104 49,11 114,11 167,11z"/>
   <path class="fil1" d="M1661 3751c63,-6 199,22 246,0 32,-14 43,-62 17,-93 -23,-26 -67,-22 -106,-23 -83,-3 -446,-22 -495,-9 -36,60 -29,102 53,116 130,22 154,-18 161,39 15,117 22,279 23,398 0,7 -22,159 85,116 51,-21 40,-106 36,-167 -7,-115 -23,-267 -20,-377z"/>
   <path class="fil1" d="M4748 2931c5,-133 40,-489 10,-593 -82,-46 -115,-8 -114,89 0,79 -1,158 -4,237 -8,200 -57,375 75,387 60,5 160,-11 218,-22 61,-12 151,-25 164,-73 9,-35 -12,-69 -40,-76 -27,-7 -69,10 -95,17 -67,18 -138,32 -213,35z"/>
   <path class="fil0" d="M1491 2915c161,70 346,-30 309,-207 -26,-125 -214,-214 -312,-238l3 445z"/>
   <path class="fil0" d="M2103 3970c91,14 267,-23 236,-117 -22,-65 -140,-127 -238,-118l1 235z"/>
   <path class="fil0" d="M4223 2725l121 -8 -28 -146c-26,23 -80,120 -93,155z"/>
   <path class="fil0" d="M4985 4011l123 -9c-4,-26 -8,-47 -13,-73 -5,-27 -6,-52 -21,-74l-89 155z"/>
   <path class="fil0" d="M2826 4012l121 -9 -28 -147c-20,18 -34,49 -48,73 -19,32 -33,49 -45,83z"/>
  </g>
 </g>
</svg>
